<mxfile host="Electron" agent="Mozilla/5.0 (Windows NT 10.0; Win64; x64) AppleWebKit/537.36 (KHTML, like Gecko) draw.io/26.0.16 Chrome/132.0.6834.196 Electron/34.2.0 Safari/537.36" version="26.0.16">
  <diagram id="07fea595-8f29-1299-0266-81d95cde20df" name="AMC">
    <mxGraphModel dx="4250" dy="-494" grid="1" gridSize="10" guides="1" tooltips="1" connect="1" arrows="1" fold="1" page="1" pageScale="1" pageWidth="1169" pageHeight="827" background="none" math="0" shadow="0">
      <root>
        <mxCell id="0" />
        <mxCell id="1" parent="0" />
        <mxCell id="FhCU52VUXOTxGwSrfOx1-1" value="User" style="shape=umlActor;verticalLabelPosition=bottom;verticalAlign=top;html=1;outlineConnect=0;fontStyle=0;fontSize=38;" vertex="1" parent="1">
          <mxGeometry x="-2240" y="1800" width="250" height="440" as="geometry" />
        </mxCell>
        <mxCell id="FhCU52VUXOTxGwSrfOx1-2" value="Cockpit" style="shape=umlActor;verticalLabelPosition=bottom;verticalAlign=top;html=1;outlineConnect=0;fontStyle=0;fontSize=38;" vertex="1" parent="1">
          <mxGeometry x="-1878" y="1800" width="250" height="440" as="geometry" />
        </mxCell>
        <mxCell id="FhCU52VUXOTxGwSrfOx1-3" value="Admin" style="shape=umlActor;verticalLabelPosition=bottom;verticalAlign=top;html=1;outlineConnect=0;fontStyle=0;fontSize=38;" vertex="1" parent="1">
          <mxGeometry x="-1520" y="1800" width="250" height="440" as="geometry" />
        </mxCell>
      </root>
    </mxGraphModel>
  </diagram>
</mxfile>
